<?xml version="1.0" encoding="UTF-8" standalone="no"?>
<!DOCTYPE svg PUBLIC "-//W3C//DTD SVG 1.1//EN" "http://www.w3.org/Graphics/SVG/1.1/DTD/svg11.dtd">
<svg width="100%" height="100%" viewBox="0 0 703 680" version="1.1" xmlns="http://www.w3.org/2000/svg" xmlns:xlink="http://www.w3.org/1999/xlink" xml:space="preserve" xmlns:serif="http://www.serif.com/" style="fill-rule:evenodd;clip-rule:evenodd;stroke-linejoin:round;stroke-miterlimit:2;">
    <g transform="matrix(1,0,0,1,-8376.98,-10498.4)">
        <g transform="matrix(5.55556,0,0,5.55556,0,0)">
            <g transform="matrix(90.594,-131.548,131.548,90.594,1514.15,2055.53)">
                <path d="M0.881,-0.326C0.824,-0.286 0.809,-0.207 0.849,-0.149C0.87,-0.118 0.904,-0.099 0.938,-0.095C0.953,-0.179 0.954,-0.265 0.947,-0.348C0.924,-0.347 0.901,-0.34 0.881,-0.326ZM0.656,-0.434C0.61,-0.402 0.598,-0.338 0.63,-0.292C0.662,-0.245 0.726,-0.233 0.772,-0.265C0.819,-0.297 0.831,-0.361 0.799,-0.408C0.767,-0.454 0.703,-0.466 0.656,-0.434ZM0.887,0.072C0.904,0.036 0.917,-0.001 0.926,-0.038C0.891,-0.013 0.876,0.032 0.887,0.072ZM0.572,-0.162C0.569,-0.186 0.56,-0.21 0.545,-0.231C0.496,-0.303 0.397,-0.321 0.325,-0.272L0.202,-0.187L0.581,0.363C0.689,0.315 0.768,0.25 0.824,0.176C0.822,0.171 0.819,0.166 0.815,0.161C0.8,0.139 0.781,0.123 0.76,0.111C0.786,0.051 0.781,-0.02 0.742,-0.078C0.702,-0.135 0.637,-0.165 0.572,-0.162Z" style="fill:url(#_Linear1);fill-rule:nonzero;"/>
            </g>
            <g transform="matrix(-69.4968,-93.0761,93.0761,-69.4968,1573.25,1994.36)">
                <path d="M0.696,0.282C0.618,0.224 0.509,0.24 0.451,0.317C0.396,0.391 0.408,0.494 0.476,0.553C0.561,0.553 0.645,0.546 0.725,0.535C0.727,0.532 0.729,0.529 0.731,0.526C0.789,0.449 0.773,0.339 0.696,0.282ZM0.737,-0.059C0.675,-0.106 0.586,-0.093 0.54,-0.031C0.493,0.032 0.506,0.12 0.568,0.166C0.631,0.213 0.719,0.2 0.766,0.138C0.812,0.076 0.799,-0.013 0.737,-0.059ZM0.343,0.468C0.281,0.422 0.192,0.435 0.146,0.497C0.142,0.503 0.138,0.509 0.135,0.514C0.22,0.536 0.309,0.548 0.396,0.552C0.39,0.52 0.371,0.49 0.343,0.468ZM0.346,-0.05C0.376,-0.064 0.403,-0.086 0.424,-0.115C0.485,-0.196 0.48,-0.307 0.418,-0.382C0.298,-0.386 0.179,-0.37 0.068,-0.344L-0.346,0.211C-0.254,0.327 -0.143,0.407 -0.021,0.461C-0.001,0.448 0.017,0.43 0.033,0.41C0.054,0.381 0.067,0.349 0.073,0.316C0.162,0.324 0.253,0.286 0.31,0.209C0.368,0.132 0.378,0.034 0.346,-0.05Z" style="fill:url(#_Linear2);fill-rule:nonzero;"/>
            </g>
            <g transform="matrix(71.9788,-150.783,150.783,71.9788,1550.29,2030.44)">
                <path d="M0.652,-0.306C0.592,-0.277 0.566,-0.205 0.595,-0.144C0.624,-0.083 0.697,-0.058 0.757,-0.087C0.818,-0.116 0.843,-0.188 0.815,-0.249C0.786,-0.309 0.713,-0.335 0.652,-0.306ZM0.413,-0.305C0.438,-0.261 0.494,-0.243 0.54,-0.265C0.583,-0.285 0.605,-0.333 0.593,-0.378C0.525,-0.36 0.465,-0.335 0.413,-0.305ZM0.653,-0.029C0.605,-0.006 0.585,0.051 0.606,0.099C0.661,0.064 0.715,0.028 0.766,-0.008C0.738,-0.038 0.692,-0.047 0.653,-0.029ZM0.335,-0.198C0.336,-0.215 0.334,-0.232 0.328,-0.248C0.233,-0.173 0.17,-0.08 0.129,0.013L0.266,0.301L0.266,0.301C0.342,0.258 0.43,0.207 0.52,0.152C0.519,0.149 0.518,0.146 0.517,0.144C0.506,0.121 0.491,0.103 0.472,0.089C0.506,0.036 0.512,-0.032 0.483,-0.092C0.454,-0.153 0.397,-0.191 0.335,-0.198Z" style="fill:url(#_Linear3);fill-rule:nonzero;"/>
            </g>
            <g transform="matrix(-175.604,-95.5581,95.5581,-175.604,1724.03,2042.78)">
                <path d="M0.99,0.117C0.973,0.116 0.956,0.12 0.939,0.129C0.89,0.156 0.872,0.218 0.899,0.267C0.917,0.301 0.952,0.32 0.987,0.32C1.008,0.248 1.007,0.18 0.99,0.117ZM0.846,0.183C0.824,0.143 0.774,0.128 0.735,0.15C0.695,0.172 0.68,0.221 0.702,0.261C0.723,0.301 0.773,0.315 0.813,0.294C0.853,0.272 0.867,0.222 0.846,0.183ZM0.94,-0.003C0.888,-0.091 0.812,-0.167 0.739,-0.226L0.468,-0.079L0.468,-0.079L0.525,0.026C0.558,0.087 0.635,0.11 0.696,0.076C0.714,0.067 0.729,0.053 0.74,0.037C0.785,0.062 0.842,0.065 0.891,0.038C0.911,0.027 0.927,0.013 0.94,-0.003Z" style="fill:url(#_Linear4);fill-rule:nonzero;"/>
            </g>
            <g transform="matrix(86.2505,-86.2505,86.2505,86.2505,1544.9,2049.31)">
                <path d="M1.117,-0.443C1.066,-0.438 1.018,-0.428 0.971,-0.414C0.971,-0.414 0.971,-0.413 0.971,-0.413C0.919,-0.361 0.919,-0.276 0.971,-0.224C1.024,-0.171 1.109,-0.171 1.161,-0.224C1.213,-0.276 1.213,-0.361 1.161,-0.413C1.148,-0.426 1.133,-0.436 1.117,-0.443ZM0.449,0.016L0.735,0.302L0.874,0.164C0.954,0.083 0.954,-0.048 0.874,-0.129C0.85,-0.153 0.821,-0.17 0.791,-0.179C0.802,-0.227 0.799,-0.278 0.782,-0.324C0.642,-0.234 0.531,-0.105 0.449,0.016Z" style="fill:url(#_Linear5);fill-rule:nonzero;"/>
            </g>
            <g transform="matrix(-101.313,138.121,-138.121,-101.313,1666.6,1941.78)">
                <path d="M0.202,0.236C0.174,0.214 0.135,0.208 0.102,0.223C0.136,0.231 0.17,0.235 0.202,0.236ZM0.326,0.227C0.43,0.207 0.519,0.161 0.589,0.11L0.442,-0.091L0.329,-0.008C0.264,0.04 0.249,0.132 0.298,0.198C0.306,0.209 0.315,0.219 0.326,0.227Z" style="fill:url(#_Linear6);fill-rule:nonzero;"/>
            </g>
        </g>
    </g>
    <defs>
        <linearGradient id="_Linear1" x1="0" y1="0" x2="1" y2="0" gradientUnits="userSpaceOnUse" gradientTransform="matrix(1,0,0,-1,0,-0.103072)"><stop offset="0" style="stop-color:rgb(0,169,230);stop-opacity:1"/><stop offset="1" style="stop-color:rgb(44,56,138);stop-opacity:1"/></linearGradient>
        <linearGradient id="_Linear2" x1="0" y1="0" x2="1" y2="0" gradientUnits="userSpaceOnUse" gradientTransform="matrix(1,0,0,-1,0,0.167207)"><stop offset="0" style="stop-color:rgb(0,146,212);stop-opacity:1"/><stop offset="0" style="stop-color:rgb(0,146,212);stop-opacity:1"/><stop offset="1" style="stop-color:rgb(0,169,230);stop-opacity:1"/></linearGradient>
        <linearGradient id="_Linear3" x1="0" y1="0" x2="1" y2="0" gradientUnits="userSpaceOnUse" gradientTransform="matrix(1,0,0,-1,0,-0.0769765)"><stop offset="0" style="stop-color:rgb(0,169,230);stop-opacity:1"/><stop offset="1" style="stop-color:rgb(91,202,244);stop-opacity:1"/><stop offset="1" style="stop-color:rgb(91,202,244);stop-opacity:1"/></linearGradient>
        <linearGradient id="_Linear4" x1="0" y1="0" x2="1" y2="0" gradientUnits="userSpaceOnUse" gradientTransform="matrix(1,5.55112e-17,5.55112e-17,-1,0,0.0935743)"><stop offset="0" style="stop-color:rgb(0,82,52);stop-opacity:1"/><stop offset="0" style="stop-color:rgb(0,82,52);stop-opacity:1"/><stop offset="1" style="stop-color:rgb(42,178,75);stop-opacity:1"/></linearGradient>
        <linearGradient id="_Linear5" x1="0" y1="0" x2="1" y2="0" gradientUnits="userSpaceOnUse" gradientTransform="matrix(1,0,0,-1,0,-0.140428)"><stop offset="0" style="stop-color:rgb(0,82,52);stop-opacity:1"/><stop offset="1" style="stop-color:rgb(42,178,75);stop-opacity:1"/></linearGradient>
        <linearGradient id="_Linear6" x1="0" y1="0" x2="1" y2="0" gradientUnits="userSpaceOnUse" gradientTransform="matrix(1,5.55112e-17,5.55112e-17,-1,0,0.145452)"><stop offset="0" style="stop-color:rgb(42,178,75);stop-opacity:1"/><stop offset="1" style="stop-color:rgb(0,82,52);stop-opacity:1"/><stop offset="1" style="stop-color:rgb(0,82,52);stop-opacity:1"/></linearGradient>
    </defs>
</svg>
