<?xml version="1.0" encoding="UTF-8" standalone="no"?>
<!DOCTYPE svg PUBLIC "-//W3C//DTD SVG 1.1//EN" "http://www.w3.org/Graphics/SVG/1.1/DTD/svg11.dtd">
<svg width="100%" height="100%" viewBox="0 0 614 725" version="1.1" xmlns="http://www.w3.org/2000/svg" xmlns:xlink="http://www.w3.org/1999/xlink" xml:space="preserve" xmlns:serif="http://www.serif.com/" style="fill-rule:evenodd;clip-rule:evenodd;stroke-linejoin:round;stroke-miterlimit:2;">
    <g transform="matrix(1,0,0,1,-2250.58,-10430.9)">
        <g transform="matrix(5.55556,0,0,5.55556,0,0)">
            <g transform="matrix(48.9916,85.2359,85.2359,-48.9916,433.602,1885.49)">
                <path d="M0.681,-0.451C0.752,-0.41 0.814,-0.35 0.858,-0.273C0.99,-0.043 0.911,0.25 0.681,0.382C0.506,0.483 0.294,0.461 0.144,0.343C0.123,0.03 0.201,-0.353 0.681,-0.451Z" style="fill:url(#_Linear1);fill-rule:nonzero;"/>
            </g>
            <g transform="matrix(38.8993,59.9893,59.9893,-38.8993,445.768,1911.89)">
                <path d="M0.496,-0.612C0.577,-0.572 0.65,-0.515 0.71,-0.442C0.734,-0.197 0.737,0.251 0.496,0.57C0.2,0.718 -0.166,0.624 -0.351,0.341C-0.266,-0.065 -0.049,-0.54 0.496,-0.612Z" style="fill:url(#_Linear2);fill-rule:nonzero;"/>
            </g>
            <g transform="matrix(-44.3038,-92.8088,-92.8088,44.3038,462.095,1966.84)">
                <path d="M0.869,-0.115C0.665,0.042 0.364,0.215 0.189,0.312C0.141,0.286 0.098,0.251 0.061,0.209C0.097,-0.014 0.231,-0.371 0.715,-0.434C0.759,-0.394 0.797,-0.345 0.824,-0.288C0.851,-0.232 0.865,-0.173 0.869,-0.115Z" style="fill:url(#_Linear3);fill-rule:nonzero;"/>
            </g>
            <g transform="matrix(108.086,-58.8171,-58.8171,-108.086,354.894,1967.01)">
                <path d="M0.522,0.106C0.434,-0.057 0.476,-0.257 0.613,-0.371C0.78,-0.266 1.09,-0.021 0.98,0.287C0.807,0.345 0.613,0.272 0.522,0.106Z" style="fill:url(#_Linear4);fill-rule:nonzero;"/>
            </g>
            <g transform="matrix(-53.0882,-53.0882,-53.0882,53.0882,472.072,1973.89)">
                <path d="M1.093,0.168C0.888,0.374 0.576,0.407 0.335,0.269C0.461,0.02 0.765,-0.44 1.269,-0.382C1.301,-0.188 1.243,0.019 1.093,0.168Z" style="fill:url(#_Linear5);fill-rule:nonzero;"/>
            </g>
            <g transform="matrix(62.3592,85.0149,85.0149,-62.3592,403.618,1905.02)">
                <path d="M0.16,-0.1C0.322,-0.219 0.538,-0.212 0.692,-0.098C0.576,0.019 0.335,0.196 0.015,0.079C0.046,0.01 0.094,-0.052 0.16,-0.1Z" style="fill:url(#_Linear6);fill-rule:nonzero;"/>
            </g>
            <g transform="matrix(1,0,0,1,448.123,1899.9)">
                <path d="M0,88.125C-15.359,87.187 -29.703,80.796 -40.742,69.881L-35.188,64.262C-24.696,74.636 -10.796,80.35 3.95,80.35C34.633,80.35 59.595,55.387 59.595,24.704C59.595,9.958 53.883,-3.941 43.508,-14.434L49.127,-19.99C60.973,-8.008 67.497,7.865 67.497,24.704C67.497,58.417 41.107,86.077 7.901,88.124L7.901,100.214L19.753,100.214L19.753,108.115L-11.852,108.115L-11.852,100.214L0,100.214L0,88.125Z" style="fill:rgb(0,169,230);fill-rule:nonzero;"/>
            </g>
        </g>
    </g>
    <defs>
        <linearGradient id="_Linear1" x1="0" y1="0" x2="1" y2="0" gradientUnits="userSpaceOnUse" gradientTransform="matrix(-0.996687,-0.081331,-0.081331,0.996687,1.10881,0.0451653)"><stop offset="0" style="stop-color:rgb(0,169,230);stop-opacity:1"/><stop offset="1" style="stop-color:rgb(44,56,138);stop-opacity:1"/></linearGradient>
        <linearGradient id="_Linear2" x1="0" y1="0" x2="1" y2="0" gradientUnits="userSpaceOnUse" gradientTransform="matrix(-0.346799,0.937939,0.937939,0.346799,0.307451,-0.214115)"><stop offset="0" style="stop-color:rgb(0,146,212);stop-opacity:1"/><stop offset="0" style="stop-color:rgb(0,146,212);stop-opacity:1"/><stop offset="1" style="stop-color:rgb(0,169,230);stop-opacity:1"/></linearGradient>
        <linearGradient id="_Linear3" x1="0" y1="0" x2="1" y2="0" gradientUnits="userSpaceOnUse" gradientTransform="matrix(1,-5.55112e-17,-5.55112e-17,-1,0,-0.121996)"><stop offset="0" style="stop-color:rgb(0,169,230);stop-opacity:1"/><stop offset="1" style="stop-color:rgb(91,202,244);stop-opacity:1"/><stop offset="1" style="stop-color:rgb(91,202,244);stop-opacity:1"/></linearGradient>
        <linearGradient id="_Linear4" x1="0" y1="0" x2="1" y2="0" gradientUnits="userSpaceOnUse" gradientTransform="matrix(1,0,0,-1,0,-0.0266276)"><stop offset="0" style="stop-color:rgb(0,82,52);stop-opacity:1"/><stop offset="0" style="stop-color:rgb(0,82,52);stop-opacity:1"/><stop offset="1" style="stop-color:rgb(42,178,75);stop-opacity:1"/></linearGradient>
        <linearGradient id="_Linear5" x1="0" y1="0" x2="1" y2="0" gradientUnits="userSpaceOnUse" gradientTransform="matrix(1,0,0,-1,0,-0.0325674)"><stop offset="0" style="stop-color:rgb(0,114,66);stop-opacity:1"/><stop offset="1" style="stop-color:rgb(42,178,75);stop-opacity:1"/></linearGradient>
        <linearGradient id="_Linear6" x1="0" y1="0" x2="1" y2="0" gradientUnits="userSpaceOnUse" gradientTransform="matrix(1,-5.55112e-17,-5.55112e-17,-1,0,-0.0226123)"><stop offset="0" style="stop-color:rgb(42,178,75);stop-opacity:1"/><stop offset="1" style="stop-color:rgb(0,147,72);stop-opacity:1"/><stop offset="1" style="stop-color:rgb(0,147,72);stop-opacity:1"/></linearGradient>
    </defs>
</svg>
